<svg width="549" height="668" viewBox="0 0 549 668" fill="none" xmlns="http://www.w3.org/2000/svg">
<g filter="url(#filter0_d_2014_9)">
<path d="M18.4 88.1766C18.4 40.1215 61.9673 3.62128 109.575 10.1597C160.848 17.2013 224.399 24.2024 274.4 24.2024C324.401 24.2024 387.952 17.2013 439.225 10.1597C486.833 3.62128 530.4 40.1215 530.4 88.1766V562.871C530.4 605.397 495.926 639.871 453.4 639.871H95.4C52.8741 639.871 18.4 605.397 18.4 562.871V88.1766Z" fill="white"/>
<path d="M439.361 11.15C486.394 4.6909 529.4 40.7535 529.4 88.1764V562.871C529.4 604.844 495.374 638.871 453.4 638.871H95.4C53.4264 638.871 19.4 604.844 19.4 562.871V88.1764C19.4001 40.7535 62.4061 4.6909 109.439 11.15C160.72 18.1928 224.327 25.2027 274.4 25.2027C324.473 25.2027 388.08 18.1928 439.361 11.15Z" fill="white" stroke="url(#paint0_linear_2014_9)" stroke-width="2"/>
</g>
<defs>
<filter id="filter0_d_2014_9" x="-6.59998" y="-15.6" width="562" height="682.871" filterUnits="userSpaceOnUse" color-interpolation-filters="sRGB">
<feFlood flood-opacity="0" result="BackgroundImageFix"/>
<feColorMatrix in="SourceAlpha" type="matrix" values="0 0 0 0 0 0 0 0 0 0 0 0 0 0 0 0 0 0 127 0" result="hardAlpha"/>
<feOffset dy="9"/>
<feGaussianBlur stdDeviation="9.2"/>
<feComposite in2="hardAlpha" operator="out"/>
<feColorMatrix type="matrix" values="0 0 0 0 0 0 0 0 0 0 0 0 0 0 0 0 0 0 0.25 0"/>
<feBlend mode="normal" in2="BackgroundImageFix" result="effect1_dropShadow_2014_9"/>
<feBlend mode="normal" in="SourceGraphic" in2="effect1_dropShadow_2014_9" result="shape"/>
</filter>
<linearGradient id="paint0_linear_2014_9" x1="30.4" y1="56.3707" x2="471.4" y2="615.871" gradientUnits="userSpaceOnUse">
<stop stop-color="white" stop-opacity="0.2"/>
<stop offset="0.52" stop-opacity="0"/>
<stop offset="1" stop-color="white" stop-opacity="0.2"/>
</linearGradient>
</defs>
</svg>
